<?xml version="1.0" encoding="utf-8"?>
<!-- Generator: Adobe Illustrator 26.3.1, SVG Export Plug-In . SVG Version: 6.00 Build 0)  -->
<svg version="1.1" id="レイヤー_1" xmlns="http://www.w3.org/2000/svg" xmlns:xlink="http://www.w3.org/1999/xlink" x="0px"
	 y="0px" viewBox="0 0 512 512" style="enable-background:new 0 0 512 512;" xml:space="preserve">
<style type="text/css">
	.st0{fill:#4DBBCB;}
	.st1{fill:#FFFFFF;stroke:#000000;stroke-width:6;stroke-linecap:round;stroke-linejoin:round;stroke-miterlimit:10;}
</style>
<circle class="st0" cx="256.2" cy="256.2" r="255.1"/>
<g>
	<path class="st1" d="M267.7,250.7c15.4-10.5,37.4-18.8,65.5-24.5c23.9-4.9,47.2-7,62.5-7.8c0.3,0,0.6,0,0.9,0
		c8.6,0,15.6,6.7,15.6,14.9v131.2c0,7.8-6.4,14.4-14.6,14.8c-26.5,1.4-91.1,7.2-129.8,31.4L267.7,250.7L267.7,250.7z M244.3,410.5
		c-17.2-10.8-55.4-27.5-129.8-31.3c-8.2-0.4-14.6-6.9-14.6-14.8V233.3c0-8.3,7-14.9,15.6-14.9c0.3,0,0.6,0,0.9,0
		c26.3,1.5,91,7.5,127.9,32V410.5z M256,214.6c-31.7,0-57.4-25.7-57.4-57.4s25.7-57.4,57.4-57.4s57.4,25.7,57.4,57.4
		S287.7,214.6,256,214.6z"/>
	<path d="M256,101.7c30.6,0,55.5,24.9,55.5,55.5s-24.9,55.5-55.5,55.5s-55.5-24.9-55.5-55.5S225.4,101.7,256,101.7 M396.6,220.2
		c7.5,0,13.7,5.9,13.7,13.1v131.2c0,6.9-5.6,12.6-12.8,13c-15.4,0.8-39.1,2.8-63.8,7.7c-26.5,5.3-48,12.7-64.1,22.2V251.7
		c15.1-10.1,36.7-18.1,64-23.7c23.8-4.9,47-6.9,62.2-7.8C396.1,220.2,396.3,220.2,396.6,220.2 M115.4,220.2c0.2,0,0.6,0,0.8,0
		c15.2,0.9,38.4,2.9,62.3,7.8c27.1,5.6,48.5,13.4,63.9,23.3v155.9c-16-9.4-37.5-16.9-64-22.2c-24.6-4.9-48.3-6.9-63.9-7.7
		c-7.2-0.4-12.8-6-12.8-13v-131C101.7,226.1,107.9,220.2,115.4,220.2 M256,98c-32.7,0-59.3,26.5-59.3,59.3s26.5,59.3,59.3,59.3
		s59.2-26.5,59.2-59.3S288.7,98,256,98L256,98z M396.6,216.5c-0.3,0-0.7,0-1,0c-30.9,1.7-93.4,8.3-129.1,32.8
		c-0.6,0.1-0.7,0.1-0.7,0.2V414c37-24.9,101.7-31.4,131.8-32.9c9.2-0.5,16.4-7.9,16.4-16.7V233.3C414,224,406.2,216.5,396.6,216.5
		L396.6,216.5z M115.4,216.5c-9.6,0-17.4,7.5-17.4,16.8v131.2c0,8.8,7.2,16.2,16.4,16.7c30.1,1.5,94.9,7.8,131.8,32.8V249.3
		c-36.2-24.5-98.8-31.1-129.7-32.8C116.1,216.5,115.7,216.5,115.4,216.5L115.4,216.5z"/>
</g>
</svg>
