<?xml version="1.0" encoding="utf-8"?>
<!-- Generator: Adobe Illustrator 26.3.1, SVG Export Plug-In . SVG Version: 6.00 Build 0)  -->
<svg version="1.1" id="レイヤー_1" xmlns="http://www.w3.org/2000/svg" xmlns:xlink="http://www.w3.org/1999/xlink" x="0px"
	 y="0px" viewBox="0 0 513.1 512" style="enable-background:new 0 0 513.1 512;" xml:space="preserve">
<style type="text/css">
	.st0{fill:#4DBBCB;}
	.st1{fill:#FFFFFF;}
	.st2{stroke:#000000;stroke-width:3;stroke-linecap:round;stroke-linejoin:round;stroke-miterlimit:10;}
</style>
<circle class="st0" cx="256" cy="256" r="255.1"/>
<g>
	<path class="st1" d="M229.7,373.8c-8.8,0-17.4-3.1-24.3-8.6l-55.9-50.5c-0.2-0.2-0.4-0.3-0.7-0.3h-10.3l0.1-136.8
		c24.8-24.7,59.1-38.8,94.2-38.8h1.5l-48.6,44.5c-18.4,16.9-19.7,45.6-2.9,64.1c8.6,9.3,20.8,14.7,33.5,14.7
		c11.3,0,22.2-4.2,30.7-11.9l17.9-16.4l91.6,74.5c8.1,6.6,9.4,18.2,2.8,26.3l-5.9,7.3c-3.6,4.4-8.9,6.9-14.5,6.9l0,0
		c-4.3,0-8.5-1.5-11.9-4.2l-3.3-2.8c-0.2-0.2-0.4-0.2-0.6-0.2H323c-0.3,0-0.5,0.2-0.7,0.4L303,365.7c-4.1,5-10.2,7.9-16.9,7.9
		c-5.1,0-10-1.7-14-4.7l-11.2-9.4c-0.2-0.2-0.4-0.2-0.6-0.2h-0.1c-0.3,0-0.5,0.2-0.7,0.4C252.2,368.6,241.3,373.8,229.7,373.8z
		 M413.4,334.3c-9.9,0-18.2-8.6-18.2-18.8v-137l57.3-0.2v156H413.4z M423.9,294.7c-6,0-10.9,4.9-10.9,10.9c0,5.9,5,10.9,10.9,10.9
		s10.9-5,10.9-10.9C434.8,299.6,429.9,294.7,423.9,294.7z M59.6,334.2V178.4h57.2v137c0,10.4-8.4,18.8-18.8,18.8L59.6,334.2
		L59.6,334.2z M88.1,294.8c-6,0-10.9,4.9-10.9,10.9c0,5.9,5,10.9,10.9,10.9s10.9-5,10.9-10.9C99,299.7,94.1,294.8,88.1,294.8z
		 M373.5,294c-1.1-1.1-2.1-2.1-3.3-3l-89-72.2l15.2-13.9c4.4-4.1,4.7-11,0.7-15.4c-2-2.2-5-3.5-8-3.5c-2.7,0-5.4,1-7.4,2.8
		l-49.3,45.1l-0.1,0.1l-0.1,0.1c-5,4.5-11,5.5-15.1,5.5l0,0c-6.9,0-13.8-2.7-18.1-7.1c-8.6-9.4-8.1-24.2,1.1-33.1
		c0.1-0.1,0.3-0.2,0.4-0.4l60.6-55.4c3.4-3.1,8-4.8,12.6-4.8l5.5-0.4c35.6,0,69,13.8,94.2,38.8L373.5,294L373.5,294z"/>
	<path class="st2" d="M279.3,139.3c17.5,0,34.6,3.4,50.8,10.1c15.9,6.6,30.2,16.1,42.5,28.2v114.1c-0.5-0.5-1.1-1-1.6-1.4
		l-88.1-71.4l14.4-13.1c2.3-2.2,3.7-5.1,3.8-8.3c0.1-3.2-1-6.2-3.1-8.6c-2.2-2.4-5.4-3.8-8.8-3.8c-3,0-5.8,1.1-8.1,3.1l-49.3,45.1
		c-0.1,0.1-0.1,0.1-0.2,0.2c0,0,0,0-0.1,0c-4.8,4.3-10.5,5.2-14.4,5.2c-6.6,0-13.3-2.6-17.4-6.8c-4-4.3-6.1-10-5.9-15.9
		c0.1-6,2.6-11.5,7-15.7c0.2-0.1,0.4-0.3,0.5-0.5l60.6-55.4c3.2-2.9,7.5-4.6,11.9-4.6h0.1L279.3,139.3 M231.8,139.8l-46.7,42.7
		c-18.8,17.3-20.1,46.6-2.9,65.5c8.8,9.5,21.3,15,34.2,15c11.6,0,22.7-4.3,31.4-12.2L265,235l91,73.9c7.7,6.3,8.9,17.2,2.6,24.9
		l-5.9,7.3c-3.4,4.2-8.4,6.6-13.8,6.6c-4,0-8-1.4-11.2-3.9l-3.3-2.8c-0.4-0.3-0.8-0.5-1.3-0.5c-0.1,0-0.1,0-0.2,0
		c-0.5,0-1,0.3-1.4,0.7L302.3,365c-3.9,4.8-9.8,7.5-16.1,7.5c-4.8,0-9.6-1.6-13.4-4.5l-11.2-9.4c-0.4-0.3-0.8-0.5-1.3-0.5
		c-0.1,0-0.1,0-0.2,0c-0.5,0.1-1,0.3-1.4,0.7c-7.1,8.8-17.7,13.8-29,13.8c-8.5,0-16.9-3-23.6-8.4l-55.9-50.5
		c-0.4-0.3-0.8-0.5-1.3-0.5h-9.3l0.1-135.4c12.2-12.1,26.5-21.5,42.4-28.1C198,143.3,214.7,139.9,231.8,139.8 M451.5,179.3v154
		h-38.1c-9.3,0-17.2-8.2-17.2-17.8v-136L451.5,179.3 M423.9,317.5c6.5,0,11.9-5.4,11.9-11.9c0-6.6-5.3-11.9-11.9-11.9
		S412,299,412,305.6C412,312.1,417.4,317.5,423.9,317.5 M115.8,179.4v136c0,9.8-8,17.8-17.8,17.8H60.6V179.4H115.8 M88.1,317.6
		c6.5,0,11.9-5.4,11.9-11.9c0-6.6-5.3-11.9-11.9-11.9c-6.6,0-11.9,5.3-11.9,11.9C76.2,312.2,81.6,317.6,88.1,317.6 M201.4,199.5
		L201.4,199.5L201.4,199.5 M279.2,137.3l-5.4,0.4c-4.9,0-9.7,1.8-13.3,5.1l-60.7,55.5c-0.1,0.1-0.1,0.2-0.2,0.2
		c-10.2,9.6-10.1,25-1.3,34.6c4.5,4.6,11.6,7.4,18.8,7.4c5.6,0,11.3-1.7,15.8-5.7c0.1-0.1,0.2-0.1,0.2-0.2l49.3-45.1
		c1.9-1.7,4.3-2.6,6.7-2.6c2.7,0,5.3,1.1,7.3,3.2c3.7,4,3.4,10.3-0.6,14l-16.1,14.7l89.9,72.9c1.8,1.5,3.4,3.1,4.9,4.8V176.7
		C349.2,151.4,315,137.3,279.2,137.3L279.2,137.3z M237,137.8h-4.1c-35.7,0-70,14.2-95.2,39.4l-0.1,138.2h11.3l55.9,50.5
		c7.4,6,16.2,8.9,24.9,8.9c11.5,0,22.8-5,30.6-14.6l11.2,9.4c4.3,3.3,9.5,4.9,14.6,4.9c6.6,0,13.2-2.7,17.7-8.2l19.4-23.8l3.3,2.8
		c3.7,2.9,8.1,4.4,12.5,4.4c5.7,0,11.4-2.5,15.3-7.3l5.9-7.3c6.9-8.5,5.6-20.8-2.9-27.7l-92.3-75l-18.5,17
		c-8.6,7.8-19.4,11.6-30,11.6c-12.1,0-24.1-4.9-32.8-14.3c-16.5-18.1-15.2-46.2,2.8-62.7L237,137.8L237,137.8z M453.5,177.3
		l-59.3,0.2v138c0,10.9,8.8,19.8,19.2,19.8h40.1V177.3L453.5,177.3z M423.9,315.5c-5.4,0-9.9-4.5-9.9-9.9c0-5.5,4.5-9.9,9.9-9.9
		s9.9,4.4,9.9,9.9C433.8,311,429.3,315.5,423.9,315.5L423.9,315.5z M117.8,177.4H58.6v157.8H98c11,0,19.8-8.8,19.8-19.8V177.4
		L117.8,177.4z M88.1,315.6c-5.4,0-9.9-4.5-9.9-9.9c0-5.5,4.5-9.9,9.9-9.9s9.9,4.4,9.9,9.9C98,311.1,93.5,315.6,88.1,315.6
		L88.1,315.6z M58.6,335.2L58.6,335.2L58.6,335.2L58.6,335.2z"/>
</g>
</svg>
