<?xml version="1.0" encoding="utf-8"?>
<!-- Generator: Adobe Illustrator 26.3.1, SVG Export Plug-In . SVG Version: 6.00 Build 0)  -->
<svg version="1.1" id="レイヤー_1" xmlns="http://www.w3.org/2000/svg" xmlns:xlink="http://www.w3.org/1999/xlink" x="0px"
	 y="0px" viewBox="0 0 511.6 512" style="enable-background:new 0 0 511.6 512;" xml:space="preserve">
<style type="text/css">
	.st0{fill:#4DBBCB;}
	.st1{fill:#FFFFFF;stroke:#000000;stroke-width:3;stroke-linecap:round;stroke-linejoin:round;stroke-miterlimit:10;}
	.st2{stroke:#000000;stroke-width:3;stroke-linecap:round;stroke-linejoin:round;stroke-miterlimit:10;}
</style>
<circle class="st0" cx="256.5" cy="256" r="255.1"/>
<g>
	<path class="st1" d="M428.8,408.6c-7.1,0-13.7-4.7-15.9-11.4l-16.5-41.3l1.1-10.4l23.4-26.4l25.3,64.5c1.8,4.5,1.7,9.4-0.2,13.8
		c-2,4.5-5.7,8-10.4,9.9C433.4,408.2,431.1,408.6,428.8,408.6z M352,408.6c-0.1,0-0.4,0-0.8-0.1l-1.2-0.1c-4.8-0.5-9.1-2.9-12.2-6.7
		c-3-3.8-4.4-8.5-3.9-13.4l6-55.7c0.9-7.5,4-14.6,9.1-20.5l26-29.4c0.2-0.2,0.3-0.6,0.2-0.9l-10.6-42.2c-0.1-0.4-0.5-0.7-0.9-0.8
		l0,0c-0.4,0-0.8,0.3-0.9,0.7l-4.1,12.2c-2.4,7.6-7.1,13.9-14.3,19.1l-30.6,19.5c-2.7,1.7-7,2.6-9.9,2.8h-95.4
		c-2.8-0.2-7.2-1.2-9.8-2.9L168.1,271c-7.1-5.1-11.9-11.5-14.3-19l-4.1-12.2c-0.1-0.4-0.5-0.7-0.9-0.7l0,0c-0.4,0-0.8,0.3-0.9,0.8
		L137.2,282c-0.1,0.3,0,0.7,0.2,0.9l26,29.4c5.1,5.8,8.3,12.9,9.1,20.5l6,55.7c0.6,4.9-0.8,9.6-3.8,13.4s-7.4,6.1-12.2,6.7h-0.3
		c-0.6,0.1-1.1,0.1-1.7,0.1c-9.3,0-17.1-7.2-18.1-16.7l-6.1-55.6c0-0.2-0.1-0.4-0.2-0.6l-40.4-45.5c-8-9.1-11.1-21.5-8.4-33.2
		l11-48.1c2.7-11.8,10.9-21.6,21.9-26.2c4.7-2,9.6-3.1,14.6-3.1c6.3,0,12.6,1.7,18.2,5c13.4,7.9,23.5,20.3,28.4,35.1l6.8,20.3
		c0.1,0.2,0.2,0.4,0.4,0.5l9.7,6.2c0.2,0.1,0.3,0.2,0.5,0.2s0.3,0,0.5-0.1c0.3-0.2,0.5-0.5,0.5-0.9v-57.1c0-4.7,3.9-8.6,8.6-8.6H304
		c4.7,0,8.6,3.9,8.6,8.6l1.1,57.7c0,0.4,0.2,0.7,0.5,0.9c0.1,0.1,0.3,0.1,0.5,0.1s0.4-0.1,0.6-0.2l9.1-6.2c0.2-0.1,0.3-0.3,0.4-0.5
		l6.8-20.3c5-14.8,15.1-27.2,28.4-35.1c5.9-3.3,12.1-5,18.4-5c4.9,0,9.7,1,14.4,3.1c11,4.7,19.2,14.5,21.9,26.2l11.1,48.1
		c2.7,11.7-0.5,24.1-8.4,33.1l-40.9,45.5c-0.1,0.2-0.2,0.4-0.2,0.6l-6.1,55.6C368.5,401.9,361.1,408.6,352,408.6z M83.6,408.6
		c-2.3,0-4.5-0.4-6.7-1.3c-9.3-3.8-13.9-14.4-10.2-23.7l25.8-64.5l23.4,26.4l1.1,10.4l-16.5,41.3C97.8,404.1,91.1,408.6,83.6,408.6
		L83.6,408.6z M371.2,158.4c-14.8,0-27.8-13-27.8-27.8c0-15,12.5-27.3,27.8-27.3s27.3,12.2,27.3,27.8
		C398.5,146.2,386.2,158.4,371.2,158.4z M141.3,158.4c-15.1,0-27.8-12.7-27.8-27.8c0-15,12.5-27.3,27.8-27.3
		c15,0,27.3,12.5,27.3,27.8C168.6,146.2,156.3,158.4,141.3,158.4z"/>
	<path class="st2" d="M371.2,104.4c14.7,0,26.3,11.8,26.3,26.8c0,14.5-11.8,26.3-26.3,26.3c-14.3,0-26.8-12.5-26.8-26.8
		c0-6.9,2.8-13.5,7.8-18.5C357.3,107.1,364.1,104.4,371.2,104.4 M141.3,104.4c7.1,0,13.7,2.9,18.7,8c4.8,5,7.6,11.9,7.6,18.8
		c0,14.5-11.8,26.3-26.3,26.3s-26.8-12.3-26.8-26.8c0-6.9,2.8-13.5,7.8-18.5C127.4,107.1,134.2,104.4,141.3,104.4 M134.9,180.6
		c6.1,0,12.3,1.7,17.7,4.8c13.2,7.8,23.1,20,28,34.5l6.8,20.3c0.1,0.4,0.4,0.8,0.8,1.1l9.7,6.2c0.3,0.2,0.7,0.3,1.1,0.3
		c0.3,0,0.7-0.1,1-0.2c0.6-0.4,1-1,1-1.8v-57.1c0-4.1,3.5-7.6,7.6-7.6H304c4.1,0,7.6,3.5,7.6,7.6l1.1,57.6c0,0.7,0.4,1.4,1.1,1.7
		c0.3,0.1,0.6,0.2,0.9,0.2c0.4,0,0.8-0.1,1.1-0.3l9.1-6.2c0.4-0.2,0.6-0.6,0.8-1l6.7-20.3c5-14.5,14.9-26.8,28-34.5
		c5.8-3.2,11.8-4.8,17.9-4.8c4.7,0,9.5,1,14,3c10.7,4.5,18.7,14.1,21.3,25.5l11.1,48.1c2.6,11.4-0.4,23.4-8.2,32.2l-40.9,45.5
		c-0.3,0.3-0.5,0.7-0.5,1.1L369,392c-1.5,9.1-8.5,15.4-17.1,15.4c-0.1,0-0.4,0-0.7-0.1c-0.3,0-0.7-0.1-1.2-0.1
		c-4.6-0.5-8.6-2.7-11.5-6.3c-2.9-3.6-4.2-8.1-3.6-12.6l6-55.6c0.8-7.3,3.9-14.2,8.9-19.9l26-29.4c0.4-0.5,0.6-1.2,0.4-1.8
		l-10.6-42.2c-0.2-0.9-1-1.5-1.9-1.5h-0.1c-0.9,0-1.6,0.5-1.9,1.4l-4.1,12.3c-2.3,7.4-6.9,13.4-13.9,18.5l-30.5,19.5
		c-2.4,1.5-6.5,2.5-9.4,2.7h-95.3c-2.9-0.2-7-1.2-9.4-2.7l-30.6-19.5c-7-5.1-11.6-11.1-13.9-18.6l-4.1-12.2c-0.3-0.8-1-1.4-1.9-1.4
		h-0.1c-0.9,0-1.6,0.7-1.9,1.5L136,281.6c-0.2,0.6,0,1.3,0.4,1.8l26,29.4c5,5.7,8,12.6,8.9,19.9l6,55.7c0.5,4.6-0.8,9.1-3.6,12.6
		c-2.9,3.6-7,5.8-11.5,6.3h-0.3c-0.6,0.1-1,0.1-1.6,0.1c-9,0-16.1-6.7-17.1-15.9l-6.1-55.6c0-0.4-0.2-0.8-0.5-1.1l-40.4-45.5
		c-7.8-8.8-10.8-20.9-8.2-32.3l11-48.1c2.6-11.5,10.6-21,21.4-25.5C125.3,181.6,130,180.6,134.9,180.6 M92.9,321l22.1,25l1.1,9.8
		l-16.4,41c-2.6,6.6-8.9,10.8-16,10.8c-2.2,0-4.3-0.4-6.3-1.2c-8.8-3.6-13.1-13.6-9.6-22.4L92.9,321 M420.6,321l24.7,63
		c1.7,4.3,1.6,8.9-0.2,13.1c-1.9,4.3-5.4,7.6-9.9,9.3c-2.1,0.8-4.2,1.2-6.4,1.2c-6.7,0-12.8-4.4-14.9-10.7v-0.1l-16.4-41l1.1-9.8
		L420.6,321 M371.2,102.4c-15.9,0-28.8,12.9-28.8,28.3s13.4,28.8,28.8,28.8c15.9,0,28.3-12.9,28.3-28.3S387.6,102.4,371.2,102.4
		L371.2,102.4z M141.3,102.4c-15.9,0-28.8,12.9-28.8,28.3s12.9,28.8,28.8,28.8s28.3-12.9,28.3-28.3S157.2,102.4,141.3,102.4
		L141.3,102.4z M134.9,178.6c-5,0-10.1,1-15,3.1c-11.3,4.8-19.7,14.9-22.5,26.9l-11,48.1c-2.8,12,0.5,24.8,8.6,34.1l40.4,45.5
		l6.1,55.6c1,10.3,9.3,17.6,19,17.6c0.8,0,1.4-0.1,2.1-0.2c10.6-1.1,18.2-10.6,17-21.2l-6-55.7c-0.9-7.8-4.2-15.1-9.4-21l-26-29.4
		l10.6-42.2l4.1,12.2c2.4,7.5,7.1,14.1,14.7,19.6l30.6,19.5c2.8,1.7,7.3,2.8,10.4,3H304c3.1-0.2,7.6-1.3,10.4-3l30.6-19.5
		c7.6-5.5,12.3-12,14.7-19.6l4.1-12.2l10.6,42.2l-26,29.4c-5.2,5.9-8.5,13.2-9.4,21l-6,55.7c-1.2,10.6,6.5,20,17,21.2
		c1.2,0.1,1.8,0.2,2.1,0.2c9.7,0,17.5-7.3,19.1-17.1l6.1-55.6l40.9-45.5c8.2-9.3,11.4-22,8.6-34l-11.1-48.1
		c-2.8-12-11.2-22.1-22.5-26.9c-4.9-2.1-9.8-3.1-14.8-3.1c-6.4,0-12.8,1.7-18.9,5.1c-13.6,8-23.8,20.7-28.9,35.6l-6.8,20.3l-9.1,6.2
		l-1.1-57.6c0-5.3-4.4-9.6-9.6-9.6h-95.5c-5.3,0-9.6,4.4-9.6,9.6v57.1l-9.7-6.2l-6.8-20.3c-5-15-15.2-27.6-28.9-35.6
		C147.8,180.4,141.4,178.6,134.9,178.6L134.9,178.6z M421.3,317.3l-24.7,27.8l-1.2,11l16.6,41.5c2.5,7.5,9.7,12.1,16.8,12.1
		c2.4,0,4.8-0.5,7.1-1.4c10.3-4,15.1-15.2,11.2-25L421.3,317.3L421.3,317.3z M92.2,317.3l-26.4,66c-3.9,9.8,0.9,21,10.7,25
		c2.3,0.9,4.7,1.3,7.1,1.3c7.7,0,14.9-4.6,17.9-12.1l16.6-41.5l-1.2-11L92.2,317.3L92.2,317.3z"/>
</g>
</svg>
